<svg xmlns="http://www.w3.org/2000/svg" viewBox="0 0 640 400" fill="none">
  <defs>
    <linearGradient id="bg2" x1="0%" y1="0%" x2="100%" y2="100%">
      <stop offset="0%" stop-color="#0a1220"/>
      <stop offset="60%" stop-color="#0f1a2e"/>
      <stop offset="100%" stop-color="#162338"/>
    </linearGradient>
    <linearGradient id="accent2" x1="100%" y1="0%" x2="0%" y2="100%">
      <stop offset="0%" stop-color="#22d3ee" stop-opacity="0.2"/>
      <stop offset="100%" stop-color="#14d4b8" stop-opacity="0.1"/>
    </linearGradient>
  </defs>
  <rect width="640" height="400" fill="url(#bg2)"/>
  <rect width="640" height="400" fill="url(#accent2)"/>
  <!-- Window -->
  <rect x="100" y="50" width="440" height="300" rx="8" fill="#050a14" stroke="#1e2f47"/>
  <circle cx="120" cy="68" r="5" fill="#ef4444" opacity="0.7"/>
  <circle cx="138" cy="68" r="5" fill="#fbbf24" opacity="0.7"/>
  <circle cx="156" cy="68" r="5" fill="#2ee8c8" opacity="0.7"/>
  <text x="175" y="72" font-family="monospace" font-size="11" fill="#64748b">courseragrab — offline</text>
  <!-- Course list -->
  <rect x="120" y="90" width="180" height="240" rx="4" fill="#0f1a2e" stroke="#1e2f47"/>
  <rect x="135" y="105" width="150" height="28" rx="3" fill="#1e2f47"/>
  <rect x="135" y="145" width="150" height="28" rx="3" fill="#162338" stroke="#2ee8c8" stroke-width="1" stroke-opacity="0.4"/>
  <rect x="135" y="185" width="150" height="28" rx="3" fill="#1e2f47"/>
  <rect x="135" y="225" width="150" height="28" rx="3" fill="#1e2f47"/>
  <!-- Download panel -->
  <rect x="320" y="90" width="200" height="240" rx="4" fill="#0f1a2e" stroke="#1e2f47"/>
  <text x="340" y="120" font-family="monospace" font-size="11" fill="#5ce1ff">Downloading...</text>
  <rect x="340" y="135" width="160" height="8" rx="4" fill="#1e2f47"/>
  <rect x="340" y="135" width="110" height="8" rx="4" fill="#2ee8c8"/>
  <text x="340" y="175" font-family="monospace" font-size="10" fill="#8b9cb3">lecture_03.mp4</text>
  <text x="340" y="195" font-family="monospace" font-size="10" fill="#8b9cb3">slides_week2.pdf</text>
  <text x="340" y="215" font-family="monospace" font-size="10" fill="#64748b">subtitles_en.vtt</text>
  <rect x="340" y="280" width="120" height="32" rx="4" fill="#14d4b8" fill-opacity="0.2" stroke="#2ee8c8" stroke-width="1"/>
  <text x="400" y="301" text-anchor="middle" font-family="monospace" font-size="11" fill="#2ee8c8">Save offline</text>
  <text x="320" y="375" text-anchor="middle" font-family="sans-serif" font-size="18" fill="#b8c5d6" font-weight="600">CourseraGrab</text>
</svg>