<svg xmlns="http://www.w3.org/2000/svg" viewBox="0 0 640 400" fill="none">
  <defs>
    <linearGradient id="bg" x1="0%" y1="0%" x2="100%" y2="100%">
      <stop offset="0%" stop-color="#0a1220"/>
      <stop offset="50%" stop-color="#0f1a2e"/>
      <stop offset="100%" stop-color="#162338"/>
    </linearGradient>
    <linearGradient id="accent" x1="0%" y1="100%" x2="100%" y2="0%">
      <stop offset="0%" stop-color="#14d4b8" stop-opacity="0.15"/>
      <stop offset="100%" stop-color="#5ce1ff" stop-opacity="0.25"/>
    </linearGradient>
    <linearGradient id="glow" x1="50%" y1="0%" x2="50%" y2="100%">
      <stop offset="0%" stop-color="#2ee8c8" stop-opacity="0.4"/>
      <stop offset="100%" stop-color="#2ee8c8" stop-opacity="0"/>
    </linearGradient>
  </defs>
  <rect width="640" height="400" fill="url(#bg)"/>
  <rect width="640" height="400" fill="url(#accent)"/>
  <ellipse cx="320" cy="120" rx="200" ry="80" fill="url(#glow)"/>
  <!-- Window chrome -->
  <rect x="80" y="60" width="480" height="280" rx="8" fill="#050a14" stroke="#1e2f47" stroke-width="1"/>
  <circle cx="100" cy="78" r="5" fill="#ef4444" opacity="0.7"/>
  <circle cx="118" cy="78" r="5" fill="#fbbf24" opacity="0.7"/>
  <circle cx="136" cy="78" r="5" fill="#2ee8c8" opacity="0.7"/>
  <text x="160" y="82" font-family="monospace" font-size="11" fill="#64748b">distilmark — convert</text>
  <!-- PDF icon -->
  <rect x="110" y="110" width="60" height="72" rx="4" fill="#1e2f47" stroke="#2ee8c8" stroke-width="1" stroke-opacity="0.5"/>
  <text x="140" y="155" text-anchor="middle" font-family="monospace" font-size="14" fill="#2ee8c8" font-weight="bold">PDF</text>
  <!-- Arrow -->
  <path d="M190 146h40" stroke="#2ee8c8" stroke-width="2" stroke-linecap="round"/>
  <path d="M222 138l12 8-12 8" stroke="#2ee8c8" stroke-width="2" stroke-linecap="round" stroke-linejoin="round" fill="none"/>
  <!-- Markdown preview -->
  <rect x="250" y="100" width="290" height="220" rx="4" fill="#0f1a2e" stroke="#1e2f47"/>
  <text x="270" y="130" font-family="monospace" font-size="12" fill="#5ce1ff"># Document Title</text>
  <text x="270" y="155" font-family="monospace" font-size="11" fill="#8b9cb3">## Section 1.2</text>
  <rect x="270" y="168" width="200" height="3" rx="1" fill="#1e2f47"/>
  <rect x="270" y="180" width="250" height="3" rx="1" fill="#1e2f47"/>
  <rect x="270" y="192" width="180" height="3" rx="1" fill="#1e2f47"/>
  <text x="270" y="220" font-family="monospace" font-size="11" fill="#14d4b8">- bullet item</text>
  <text x="270" y="242" font-family="monospace" font-size="11" fill="#14d4b8">- extracted table</text>
  <text x="270" y="280" font-family="monospace" font-size="10" fill="#64748b">8 engines · Ollama · v1.5.0</text>
  <text x="320" y="370" text-anchor="middle" font-family="sans-serif" font-size="18" fill="#b8c5d6" font-weight="600">Distilmark</text>
</svg>