<svg xmlns="http://www.w3.org/2000/svg" fill="none" viewBox="0 0 1200 630"><defs><linearGradient id="bg" x1="0" x2="1200" y1="0" y2="630" gradientUnits="userSpaceOnUse"><stop stop-color="#050a14"/><stop offset="1" stop-color="#0a1220"/></linearGradient><linearGradient id="glow" x1="600" x2="600" y1="0" y2="400" gradientUnits="userSpaceOnUse"><stop stop-color="#2ee8c8" stop-opacity=".18"/><stop offset="1" stop-color="#2ee8c8" stop-opacity="0"/></linearGradient><linearGradient id="accent" x1="0" x2="1" y1="0" y2="0"><stop stop-color="#2ee8c8"/><stop offset=".5" stop-color="#5ce1ff"/><stop offset="1" stop-color="#14d4b8"/></linearGradient><pattern id="grid" width="40" height="40" patternUnits="userSpaceOnUse"><path fill="none" stroke="#1e2f47" stroke-width="1" d="M 40 0 L 0 0 0 40" opacity=".35"/></pattern><filter id="softGlow" width="140%" height="140%" x="-20%" y="-20%"><feGaussianBlur result="blur" stdDeviation="12"/><feMerge><feMergeNode in="blur"/><feMergeNode in="SourceGraphic"/></feMerge></filter></defs><rect width="1200" height="630" fill="url(#bg)"/><rect width="1200" height="630" fill="url(#grid)"/><ellipse cx="600" cy="120" fill="url(#glow)" rx="500" ry="280"/><rect width="1200" height="630" fill="url(#scanlines)" opacity=".4"/><defs><pattern id="scanlines" width="4" height="4" patternUnits="userSpaceOnUse"><rect width="4" height="2" fill="#2ee8c8" opacity=".03"/></pattern></defs><g filter="url(#softGlow)"><rect width="960" height="410" x="120" y="110" fill="#0f1a2e" stroke="#1e2f47" stroke-width="2" rx="16"/><rect width="960" height="48" x="120" y="110" fill="#162338" rx="16"/><rect width="960" height="16" x="120" y="142" fill="#162338"/><circle cx="156" cy="134" r="8" fill="#ff5f57"/><circle cx="184" cy="134" r="8" fill="#febc2e"/><circle cx="212" cy="134" r="8" fill="#28c840"/><text x="600" y="139" fill="#64748b" font-family="ui-monospace, 'IBM Plex Mono', monospace" font-size="14" letter-spacing=".08em" text-anchor="middle">hesamsamani.codes — zsh</text><text x="160" y="210" fill="#64748b" font-family="ui-monospace, 'IBM Plex Mono', monospace" font-size="22">$ whoami</text><text x="160" y="255" fill="#2ee8c8" font-family="ui-monospace, 'IBM Plex Mono', monospace" font-size="36" font-weight="600">Hesam Samani</text><text x="160" y="310" fill="#64748b" font-family="ui-monospace, 'IBM Plex Mono', monospace" font-size="22">$ cat role.txt</text><text x="160" y="355" fill="url(#accent)" font-family="ui-monospace, 'IBM Plex Mono', monospace" font-size="32" font-weight="600">AI Tool Builder</text><text x="160" y="410" fill="#64748b" font-family="ui-monospace, 'IBM Plex Mono', monospace" font-size="22">$ ls projects/</text><text x="160" y="450" fill="#8b9cb3" font-family="ui-monospace, 'IBM Plex Mono', monospace" font-size="20">privacy-first apps open-source python desktop tools</text><rect width="14" height="24" x="160" y="468" fill="#2ee8c8" opacity=".9"/></g><path stroke="#2ee8c8" stroke-width="2" d="M1080 80 L1200 80 L1200 200" opacity=".25"/><path stroke="#14d4b8" stroke-width="2" d="M120 550 L0 550 L0 630" opacity=".25"/></svg>